# xmcd
# 
# Track frame offsets:
#     150
#     24177
#     54177
#     83427
#     107062
#     132337
#     149127
#     180030
#     197577
#     206062
#     229150
# 
# Disc length: 3412
# 
# Revision: 1
# Processed by: cddbd v1.5.2PL0 Copyright (c) Steve Scherf et al.
# Submitted via: BonkEnc v1.0.8
# 
DISCID=890d520b
DTITLE=Paul Bley - Homage To Carla Bley
DYEAR=1992
DGENRE=Contemporary Jazz
TTITLE0=Seven
TTITLE1=Closer
TTITLE2=Olhos De Gato
TTITLE3=And Now The Queen
TTITLE4=Vahskar
TTITLE5=Around Again
TTITLE6=Donkey
TTITLE7=King Korn
TTITLE8=Ictus
TTITLE9=Turns
TTITLE10=Overtoned
EXTD=
EXTT0=
EXTT1=
EXTT2=
EXTT3=
EXTT4=
EXTT5=
EXTT6=
EXTT7=
EXTT8=
EXTT9=
EXTT10=
PLAYORDER=
